<svg id="Слой_1" data-name="Слой 1" xmlns="http://www.w3.org/2000/svg" viewBox="0 0 96 96"><title>jelby_logo</title><path d="M18.58,35h-5V52a4.51,4.51,0,0,1-1.08,3.27,3.89,3.89,0,0,1-2.95,1.12A4.51,4.51,0,0,1,6.28,55L3,58.22a8.62,8.62,0,0,0,2.95,2,9.79,9.79,0,0,0,3.63.61A9.41,9.41,0,0,0,16,58.56a8,8,0,0,0,2.63-6.34Z" style="fill:#222030"/><path d="M39.46,56.17H27.59V50h10.1V45.5H27.59v-6H39.46V35H22.59V60.63H39.46Z" style="fill:#222030"/><path d="M50.24,56.68H48.45A1.48,1.48,0,0,1,46.79,55V35H42.12V55.27a5.56,5.56,0,0,0,1.38,3.78,5.15,5.15,0,0,0,4.08,1.58h2.66Z" style="fill:#222030"/><path d="M67.8,47.51a5.84,5.84,0,0,0,2.18-2,5.55,5.55,0,0,0,1-3.32A6.76,6.76,0,0,0,68.86,37,8.25,8.25,0,0,0,63.06,35H52.77V60.63H63.49a8.19,8.19,0,0,0,5.68-1.94,6.93,6.93,0,0,0,2.16-5.43,5.85,5.85,0,0,0-3.53-5.75ZM63,56.17H57.77V49.88H63a3.37,3.37,0,0,1,2.49.88,3.39,3.39,0,0,1,0,4.51,3.3,3.3,0,0,1-2.49.9Zm-.32-10.78H57.77V39.5h4.89a3.51,3.51,0,0,1,2.45.8,3.09,3.09,0,0,1,0,4.28,3.47,3.47,0,0,1-2.45.81Z" style="fill:#222030"/><path d="M72.23,56.67a7.11,7.11,0,0,1-2.11,3.47,7,7,0,0,1-.6.48h6.74v-4Z" style="fill:#222030;fill-rule:evenodd"/><path d="M7.4,69.44a7.1,7.1,0,0,1-2.11,3.47,7,7,0,0,1-.6.48l36.69,0v-4Z" style="fill:#f57e2d;fill-rule:evenodd"/><path d="M86.64,35,81.93,45.35,77.14,35H71.71l7.7,15.09v10.5h5V50.13L92.07,35Z" style="fill:#222030"/><path d="M50.13,73.41H48.34V69.25L47,71.92H46l-1.37-2.67v4.16h-1.8v-7.2h1.78L46.47,70l1.89-3.79h1.77Z" style="fill:#f57e2d"/><path d="M57.58,73.41H55.83v-.63a2.36,2.36,0,0,1-.77.54,2.81,2.81,0,0,1-1,.15,2.48,2.48,0,0,1-1.83-.63,2.22,2.22,0,0,1-.6-1.62,1.92,1.92,0,0,1,.64-1.49,2.63,2.63,0,0,1,1.85-.59h1.67v-.36a1.08,1.08,0,0,0-.32-.86,1.56,1.56,0,0,0-1-.27,1.76,1.76,0,0,0-1.38.62l-1.13-1.12a3,3,0,0,1,1.09-.8,4.42,4.42,0,0,1,1.49-.22c2,0,3.06.85,3.06,2.54Zm-1.79-2.66v-.38H54.42c-.71,0-1.06.27-1.06.83s.36.81,1.09.81a1.47,1.47,0,0,0,1.06-.34A1.16,1.16,0,0,0,55.79,70.75Z" style="fill:#f57e2d"/><path d="M64.77,66.81l-1.35,1.36a1.33,1.33,0,0,0-1-.42,1.12,1.12,0,0,0-.81.34,1.33,1.33,0,0,0-.35,1v4.34h-1.8v-7.2h1.76v.69a2.13,2.13,0,0,1,.76-.55,2.67,2.67,0,0,1,1-.22A2.29,2.29,0,0,1,64.77,66.81Z" style="fill:#f57e2d"/><path d="M72.34,73.41H70.11l-1.76-3-.76.86v2.14h-1.8V63.58h1.8v5.57L70,66.21h2.16l-2.56,2.9Z" style="fill:#f57e2d"/><path d="M78.87,70.37h-4.5a1.62,1.62,0,0,0,.41,1.16,1.53,1.53,0,0,0,1.16.44,2.1,2.1,0,0,0,.9-.16,2.48,2.48,0,0,0,.73-.52l1.09,1.07a4,4,0,0,1-1.2.86,3.83,3.83,0,0,1-1.54.27,4.32,4.32,0,0,1-1.24-.17,3.11,3.11,0,0,1-1.05-.58,2.59,2.59,0,0,1-.75-1.14,5.08,5.08,0,0,1-.28-1.8,3.91,3.91,0,0,1,.86-2.7,3.2,3.2,0,0,1,4.58,0,3.73,3.73,0,0,1,.83,2.52ZM77.1,69.14a1.87,1.87,0,0,0-.17-.77,1.33,1.33,0,0,0-2.4,0,1.87,1.87,0,0,0-.16.77Z" style="fill:#f57e2d"/><path d="M83.75,73.41h-1a2,2,0,0,1-1.55-.61,2.11,2.11,0,0,1-.53-1.45V67.79h-.76V66.42h.76V64.3h1.79v2.12h1.27v1.37H82.48v3.45c0,.43.21.65.62.65h.65Z" style="fill:#f57e2d"/></svg>